<svg width="3214" height="3214" viewBox="0 0 3214 3214" fill="none" xmlns="http://www.w3.org/2000/svg">
<g clip-path="url(#clip0_90_413)">
<rect x="-295.633" y="-238.96" width="528.665" height="528.665" transform="rotate(-9 -295.633 -238.96)" stroke="#111111" stroke-width="1.65041"/>
<rect x="228.153" y="-321.92" width="528.665" height="528.665" transform="rotate(-9 228.153 -321.92)" stroke="#111111" stroke-width="1.65041"/>
<rect x="751.939" y="-404.879" width="528.665" height="528.665" transform="rotate(-9 751.939 -404.879)" stroke="#111111" stroke-width="1.65041"/>
<rect x="1275.72" y="-487.839" width="528.665" height="528.665" transform="rotate(-9 1275.72 -487.839)" stroke="#111111" stroke-width="1.65041"/>
<rect x="-212.674" y="284.825" width="528.665" height="528.665" transform="rotate(-9 -212.674 284.825)" stroke="#111111" stroke-width="1.65041"/>
<rect x="311.113" y="201.866" width="528.665" height="528.665" transform="rotate(-9 311.113 201.866)" stroke="#111111" stroke-width="1.65041"/>
<rect x="834.898" y="118.906" width="528.665" height="528.665" transform="rotate(-9 834.898 118.906)" stroke="#111111" stroke-width="1.65041"/>
<rect x="1358.68" y="35.9469" width="528.665" height="528.665" transform="rotate(-9 1358.68 35.9469)" stroke="#111111" stroke-width="1.65041"/>
<rect x="1882.47" y="-47.0128" width="528.665" height="528.665" transform="rotate(-9 1882.47 -47.0128)" stroke="#111111" stroke-width="1.65041"/>
<rect x="2406.26" y="-129.972" width="528.665" height="528.665" transform="rotate(-9 2406.26 -129.972)" stroke="#111111" stroke-width="1.65041"/>
<rect x="2930.04" y="-212.932" width="528.665" height="528.665" transform="rotate(-9 2930.04 -212.932)" stroke="#111111" stroke-width="1.65041"/>
<rect x="-129.715" y="808.611" width="528.665" height="528.665" transform="rotate(-9 -129.715 808.611)" stroke="#111111" stroke-width="1.65041"/>
<rect x="394.072" y="725.652" width="528.665" height="528.665" transform="rotate(-9 394.072 725.652)" stroke="#111111" stroke-width="1.65041"/>
<rect x="917.858" y="642.692" width="528.665" height="528.665" transform="rotate(-9 917.858 642.692)" stroke="#111111" stroke-width="1.65041"/>
<rect x="1441.64" y="559.733" width="528.665" height="528.665" transform="rotate(-9 1441.64 559.733)" stroke="#111111" stroke-width="1.65041"/>
<rect x="1965.43" y="476.773" width="528.665" height="528.665" transform="rotate(-9 1965.43 476.773)" stroke="#111111" stroke-width="1.65041"/>
<rect x="2489.22" y="393.814" width="528.665" height="528.665" transform="rotate(-9 2489.22 393.814)" stroke="#111111" stroke-width="1.65041"/>
<rect x="3013" y="310.854" width="528.665" height="528.665" transform="rotate(-9 3013 310.854)" stroke="#111111" stroke-width="1.65041"/>
<rect x="-570.541" y="1415.36" width="528.665" height="528.665" transform="rotate(-9 -570.541 1415.36)" stroke="#111111" stroke-width="1.65041"/>
<rect x="-46.7546" y="1332.4" width="528.665" height="528.665" transform="rotate(-9 -46.7546 1332.4)" stroke="#111111" stroke-width="1.65041"/>
<rect x="477.032" y="1249.44" width="528.665" height="528.665" transform="rotate(-9 477.032 1249.44)" stroke="#111111" stroke-width="1.65041"/>
<rect x="1000.82" y="1166.48" width="528.665" height="528.665" transform="rotate(-9 1000.82 1166.48)" stroke="#111111" stroke-width="1.65041"/>
<rect x="1524.6" y="1083.52" width="528.665" height="528.665" transform="rotate(-9 1524.6 1083.52)" stroke="#111111" stroke-width="1.65041"/>
<rect x="2048.39" y="1000.56" width="528.665" height="528.665" transform="rotate(-9 2048.39 1000.56)" stroke="#111111" stroke-width="1.65041"/>
<rect x="2572.18" y="917.6" width="528.665" height="528.665" transform="rotate(-9 2572.18 917.6)" stroke="#111111" stroke-width="1.65041"/>
<rect x="3095.96" y="834.64" width="528.665" height="528.665" transform="rotate(-9 3095.96 834.64)" stroke="#111111" stroke-width="1.65041"/>
<rect x="-487.581" y="1939.14" width="528.665" height="528.665" transform="rotate(-9 -487.581 1939.14)" stroke="#111111" stroke-width="1.65041"/>
<rect x="36.2044" y="1856.18" width="528.665" height="528.665" transform="rotate(-9 36.2044 1856.18)" stroke="#111111" stroke-width="1.65041"/>
<rect x="559.991" y="1773.22" width="528.665" height="528.665" transform="rotate(-9 559.991 1773.22)" stroke="#111111" stroke-width="1.65041"/>
<rect x="1083.78" y="1690.26" width="528.665" height="528.665" transform="rotate(-9 1083.78 1690.26)" stroke="#111111" stroke-width="1.65041"/>
<rect x="1607.56" y="1607.3" width="528.665" height="528.665" transform="rotate(-9 1607.56 1607.3)" stroke="#111111" stroke-width="1.65041"/>
<rect x="2131.35" y="1524.34" width="528.665" height="528.665" transform="rotate(-9 2131.35 1524.34)" stroke="#111111" stroke-width="1.65041"/>
<rect x="2655.14" y="1441.39" width="528.665" height="528.665" transform="rotate(-9 2655.14 1441.39)" stroke="#111111" stroke-width="1.65041"/>
<rect x="3178.92" y="1358.43" width="528.665" height="528.665" transform="rotate(-9 3178.92 1358.43)" stroke="#111111" stroke-width="1.65041"/>
<rect x="-404.622" y="2462.93" width="528.665" height="528.665" transform="rotate(-9 -404.622 2462.93)" stroke="#111111" stroke-width="1.65041"/>
<rect x="119.164" y="2379.97" width="528.665" height="528.665" transform="rotate(-9 119.164 2379.97)" stroke="#111111" stroke-width="1.65041"/>
<rect x="642.95" y="2297.01" width="528.665" height="528.665" transform="rotate(-9 642.95 2297.01)" stroke="#111111" stroke-width="1.65041"/>
<rect x="1166.74" y="2214.05" width="528.665" height="528.665" transform="rotate(-9 1166.74 2214.05)" stroke="#111111" stroke-width="1.65041"/>
<rect x="1690.52" y="2131.09" width="528.665" height="528.665" transform="rotate(-9 1690.52 2131.09)" stroke="#111111" stroke-width="1.65041"/>
<rect x="2214.31" y="2048.13" width="528.665" height="528.665" transform="rotate(-9 2214.31 2048.13)" stroke="#111111" stroke-width="1.65041"/>
<rect x="2738.09" y="1965.17" width="528.665" height="528.665" transform="rotate(-9 2738.09 1965.17)" stroke="#111111" stroke-width="1.65041"/>
<rect x="-321.662" y="2986.72" width="528.665" height="528.665" transform="rotate(-9 -321.662 2986.72)" stroke="#111111" stroke-width="1.65041"/>
<rect x="202.124" y="2903.76" width="528.665" height="528.665" transform="rotate(-9 202.124 2903.76)" stroke="#111111" stroke-width="1.65041"/>
<rect x="725.91" y="2820.8" width="528.665" height="528.665" transform="rotate(-9 725.91 2820.8)" stroke="#111111" stroke-width="1.65041"/>
<rect x="1249.7" y="2737.84" width="528.665" height="528.665" transform="rotate(-9 1249.7 2737.84)" stroke="#111111" stroke-width="1.65041"/>
<rect x="1773.48" y="2654.88" width="528.665" height="528.665" transform="rotate(-9 1773.48 2654.88)" stroke="#111111" stroke-width="1.65041"/>
<rect x="2297.27" y="2571.92" width="528.665" height="528.665" transform="rotate(-9 2297.27 2571.92)" stroke="#111111" stroke-width="1.65041"/>
<rect x="2821.05" y="2488.96" width="528.665" height="528.665" transform="rotate(-9 2821.05 2488.96)" stroke="#111111" stroke-width="1.65041"/>
<rect x="1332.66" y="3261.62" width="528.665" height="528.665" transform="rotate(-9 1332.66 3261.62)" stroke="#111111" stroke-width="1.65041"/>
<rect x="1856.44" y="3178.66" width="528.665" height="528.665" transform="rotate(-9 1856.44 3178.66)" stroke="#111111" stroke-width="1.65041"/>
<rect x="2380.23" y="3095.7" width="528.665" height="528.665" transform="rotate(-9 2380.23 3095.7)" stroke="#111111" stroke-width="1.65041"/>
<rect x="2904.01" y="3012.74" width="528.665" height="528.665" transform="rotate(-9 2904.01 3012.74)" stroke="#111111" stroke-width="1.65041"/>
</g>
<defs>
<clipPath id="clip0_90_413">
<rect width="3213.24" height="3213.24" fill="white"/>
</clipPath>
</defs>
</svg>
