<svg width="54" height="54" viewBox="0 0 54 54" fill="none" xmlns="http://www.w3.org/2000/svg">
<rect width="53.3948" height="53.3948" rx="8.04482" fill="url(#paint0_linear_81_154)"/>
<path d="M39.7185 16.0896C39.7185 14.7566 38.638 13.6761 37.3051 13.6761L15.5841 13.6761C14.2512 13.6761 13.1706 14.7566 13.1706 16.0896C13.1706 17.4225 14.2512 18.503 15.5841 18.503L34.8917 18.503L34.8917 37.8106C34.8917 39.1435 35.9722 40.224 37.3051 40.224C38.638 40.224 39.7185 39.1435 39.7185 37.8106L39.7185 16.0896ZM16.0896 37.3051L17.7962 39.0116L39.0117 17.7961L37.3051 16.0896L35.5985 14.383L14.383 35.5985L16.0896 37.3051Z" fill="white"/>
<defs>
<linearGradient id="paint0_linear_81_154" x1="0" y1="26.6974" x2="53.3948" y2="26.6974" gradientUnits="userSpaceOnUse">
<stop stop-color="#FF7A00"/>
<stop offset="1" stop-color="#FFBC00"/>
</linearGradient>
</defs>
</svg>
